<svg width="140" height="140" viewBox="0 0 140 140" fill="none" xmlns="http://www.w3.org/2000/svg">
<path d="M34.5966 65.7014H33.7226C31.9745 65.7014 31.1004 66.6063 31.1004 68.4163V92.8507C31.1004 94.6606 31.9745 95.5656 33.7226 95.5656H37.6558C39.4039 95.5656 40.2779 94.6606 40.2779 92.8507V67.0588C40.2779 66.1538 40.715 65.7014 41.589 65.7014H46.8333C48.5814 65.7014 49.4555 64.7964 49.4555 62.9864V21.3575C49.4555 20.4525 49.8925 20 50.7665 20H57.7589C58.633 20 59.07 20.4525 59.07 21.3575V64.3439C59.07 65.2489 58.633 65.7014 57.7589 65.7014H52.0776C50.3295 65.7014 49.4555 66.6063 49.4555 68.4163V92.8507C49.4555 94.6606 50.7665 95.5656 52.0776 95.5656H60.3811C62.1292 95.5656 63.0032 94.6606 63.0032 92.8507V67.0588C63.0032 66.1538 63.4402 65.7014 64.3143 65.7014H75.6769C76.551 65.7014 76.988 66.1538 76.988 67.0588V92.8507C76.988 94.6606 78.2991 95.5656 79.6101 95.5656H87.9136C89.6617 95.5656 90.5358 94.6606 90.5358 92.8507V68.4163C90.5358 66.6063 89.6617 65.7014 87.9136 65.7014H82.2323C81.3582 65.7014 80.9212 65.2489 80.9212 64.3439V21.3575C80.9212 20.4525 81.3582 20 82.2323 20H89.2247C90.0987 20 90.5358 20.4525 90.5358 21.3575V62.9864C90.5358 64.7964 91.4098 65.7014 93.1579 65.7014H98.4022C99.2762 65.7014 99.7133 66.1538 99.7133 67.0588V92.8507C99.7133 94.6606 100.587 95.5656 102.335 95.5656H106.277C108.026 95.5656 108.9 94.6606 108.9 92.8507V68.4163C108.9 66.6063 108.026 65.7014 106.277 65.7014H105.403C104.529 65.7014 104.092 65.2489 104.092 64.3439V21.3575C104.092 20.4525 104.529 20 105.403 20H109.511C110.385 20 110.822 20.4525 110.822 21.3575V62.9864C110.822 64.7964 111.697 65.7014 113.445 65.7014H113.882C114.756 65.7014 115.193 66.1538 115.193 67.0588V92.8507C115.193 94.6606 116.067 95.5656 117.815 95.5656H118.689C119.563 95.5656 120 96.0181 120 96.9231V118.643C120 119.548 119.563 120 118.689 120H114.581C113.707 120 113.27 119.548 113.27 118.643V98.2805C113.27 96.4706 112.396 95.5656 111.085 95.5656C109.774 95.5656 108.9 96.4706 108.9 98.2805V118.643C108.9 119.548 108.463 120 107.589 120H101.024C100.15 120 99.7133 119.548 99.7133 118.643V98.2805C99.7133 96.4706 98.8392 95.5656 97.0911 95.5656H93.1579C91.4098 95.5656 90.5358 96.4706 90.5358 98.2805V118.643C90.5358 119.548 90.0987 120 89.2247 120H78.2991C77.425 120 76.988 119.548 76.988 118.643V98.2805C76.988 96.4706 76.1139 95.5656 74.3658 95.5656H65.6254C63.8773 95.5656 63.0032 96.4706 63.0032 98.2805V118.643C63.0032 119.548 62.5662 120 61.6921 120H50.7665C49.8925 120 49.4555 119.548 49.4555 118.643V98.2805C49.4555 96.4706 48.5814 95.5656 46.8333 95.5656H42.9001C41.152 95.5656 40.2779 96.4706 40.2779 98.2805V118.643C40.2779 119.548 39.8409 120 38.9669 120H32.4115C31.5374 120 31.1004 119.548 31.1004 118.643V98.2805C31.1004 96.4706 30.2264 95.5656 28.9153 95.5656C27.6042 95.5656 26.7302 96.4706 26.7302 98.2805V118.643C26.7302 119.548 26.2932 120 25.4191 120H21.3111C20.437 120 20 119.548 20 118.643V96.9231C20 96.0181 20.437 95.5656 21.3111 95.5656H22.1851C23.9332 95.5656 24.8073 94.6606 24.8073 92.8507V67.0588C24.8073 66.1538 25.2443 65.7014 26.1183 65.7014H26.5554C28.3035 65.7014 29.1775 64.7964 29.1775 62.9864V21.3575C29.1775 20.4525 29.6145 20 30.4886 20H34.5966C35.4707 20 35.9077 20.4525 35.9077 21.3575V64.3439C35.9077 65.2489 35.4707 65.7014 34.5966 65.7014Z" fill="#F8F8F6"/>
</svg>
